REM MD5 4f40f226b5b3762b09e470caa2b94e5c
FILE "Official U.S. PlayStation Magazine Demo Disc 14 (USA).bin" BINARY
  TRACK 01 MODE2/2352
    INDEX 01 00:00:00
  TRACK 02 AUDIO
    INDEX 00 39:57:20
    INDEX 01 39:59:20
  TRACK 03 AUDIO
    INDEX 00 41:39:20
    INDEX 01 41:41:20
  TRACK 04 AUDIO
    INDEX 00 44:46:58
    INDEX 01 44:48:58
REM LEADOUT 44:54:54
